<svg viewBox="0 0 50 35" fill="none" xmlns="http://www.w3.org/2000/svg"><path d="m15.45 19.402.232-.344c.679-1.01.938-1.993.952-3.01.014-.878-.161-1.755-.413-2.68l-1.54-5.544a22.802 22.802 0 0 0-3.76 1.67c-3.962 2.231-6.42 5.403-6.42 8.988 0 3.586 2.45 6.765 6.42 8.989 2.73 1.537 6.217 2.631 10.088 3.087l-1.792-6.434c-.763-2.526-1.785-3.691-3.766-4.722Zm-8.561-.92c0-3.052 2.387-5.788 6.175-7.662l.777 2.793c.245.877.427 1.677.413 2.4a3.482 3.482 0 0 1-.616 1.957l-.357.533H6.889v-.02Zm.406 2.155h6.09c2.17 1.347 2.962 1.943 3.816 5.045.084.315.07.26.133.49l.462 1.664c-5.278-1.291-9.262-3.965-10.501-7.2ZM42.299 6.49C39.443 4.687 35.9 3.333 31.96 2.589c0 0-6.02 21.345-6.945 24.678-1.071-3.845-6.889-24.692-6.889-24.692-3.976.744-7.547 2.105-10.431 3.923C2.94 9.487 0 13.718 0 18.468c0 4.75 2.94 8.982 7.694 11.978C12.16 33.26 18.279 35 25 35c6.72 0 12.84-1.74 17.306-4.554C47.06 27.45 50 23.226 50 18.468c0-4.757-2.947-8.981-7.7-11.977Zm-1.911 22.77c-2.051 1.15-4.488 2.083-7.169 2.715-2.555.603-5.32.933-8.198.933-2.877 0-5.65-.33-8.198-.933-2.688-.632-5.118-1.558-7.169-2.716-2.31-1.298-4.186-2.905-5.495-4.736-1.31-1.839-2.03-3.873-2.03-6.042 0-2.168.72-4.21 2.03-6.041 1.309-1.832 3.185-3.438 5.495-4.737 1.94-1.094 4.222-1.978 6.742-2.61 2.38 8.554 4.767 17.121 7.14 25.66.49.022.988.036 1.492.036s1.001-.014 1.491-.035c2.38-8.547 4.76-17.107 7.141-25.66 2.513.624 4.796 1.515 6.742 2.61 2.31 1.298 4.186 2.905 5.495 4.736 1.31 1.838 2.03 3.873 2.03 6.041 0 2.169-.72 4.21-2.03 6.042-1.323 1.831-3.199 3.438-5.51 4.736ZM39.107 9.493a23.305 23.305 0 0 0-3.774-1.677c-2.107 7.585-4.221 15.17-6.328 22.741 3.878-.449 7.371-1.55 10.102-3.087 3.962-2.231 6.42-5.403 6.42-8.989 0-3.585-2.45-6.764-6.42-8.988Zm-6.882 18.342 4.74-17.016c3.78 1.866 6.174 4.61 6.174 7.662 0 4.19-4.487 7.782-10.914 9.354Z" fill="black"/><path d="M28.521.133A41.548 41.548 0 0 0 25.26 0c-1.974 0-3.9.14-5.762.4l2.164 8.7h1.428l1.925 10.652 4.445-15.45H27.87l.651-4.169Z" fill="#EF781F"/></svg>